HIERARCHY
ROOT Hips
{
	OFFSET 0.000000 100.481300 0.000000
	CHANNELS 6 Xposition Yposition Zposition Xrotation Yrotation Zrotation
	JOINT Spine
	{
		OFFSET -0.279200 12.230698 -2.892100
		CHANNELS 3 Xrotation Yrotation Zrotation
		JOINT Spine1
		{
			OFFSET -0.325700 14.269203 -3.374200
			CHANNELS 3 Xrotation Yrotation Zrotation
			JOINT Spine2
			{
				OFFSET -0.372300 16.307602 -0.352600
				CHANNELS 3 Xrotation Yrotation Zrotation
				JOINT Neck
				{
					OFFSET -0.418800 17.814194 8.416900
					CHANNELS 3 Xrotation Yrotation Zrotation
					JOINT Head
					{
						OFFSET 0.000000 7.031097 3.806800
						CHANNELS 3 Xrotation Yrotation Zrotation
						JOINT HeadTop_End
						{
							OFFSET 0.000000 24.646606 12.978600
							CHANNELS 3 Xrotation Yrotation Zrotation
							End Site
							{
								OFFSET 0.000000 27.854965 0.000000
							}
						}
					}
				}
				JOINT LeftShoulder
				{
					OFFSET 16.952999 14.495407 -7.737500
					CHANNELS 3 Xrotation Yrotation Zrotation
					JOINT LeftArm
					{
						OFFSET 9.308998 -2.777710 0.208600
						CHANNELS 3 Xrotation Yrotation Zrotation
						JOINT LeftForeArm
						{
							OFFSET 29.972298 0.000000 0.000000
							CHANNELS 3 Xrotation Yrotation Zrotation
							JOINT LeftHand
							{
								OFFSET 26.026505 0.000000 0.000000
								CHANNELS 3 Xrotation Yrotation Zrotation
								JOINT LeftHandThumb1
								{
									OFFSET 12.240501 -7.147949 9.207150
									CHANNELS 3 Xrotation Yrotation Zrotation
									JOINT LeftHandThumb2
									{
										OFFSET 4.138618 -2.389435 2.389433
										CHANNELS 3 Xrotation Yrotation Zrotation
										JOINT LeftHandThumb3
										{
											OFFSET 2.726913 -1.574387 1.574386
											CHANNELS 3 Xrotation Yrotation Zrotation
											JOINT LeftHandThumb4
											{
												OFFSET 3.941010 -2.275345 2.275342
												CHANNELS 3 Xrotation Yrotation Zrotation
												End Site
												{
													OFFSET -0.005798 5.087799 0.009903
												}
											}
										}
									}
								}
								JOINT LeftHandIndex1
								{
									OFFSET 24.424698 -1.985611 5.953459
									CHANNELS 3 Xrotation Yrotation Zrotation
									JOINT LeftHandIndex2
									{
										OFFSET 6.426697 0.000000 0.000000
										CHANNELS 3 Xrotation Yrotation Zrotation
										JOINT LeftHandIndex3
										{
											OFFSET 5.337898 0.000000 0.000000
											CHANNELS 3 Xrotation Yrotation Zrotation
											JOINT LeftHandIndex4
											{
												OFFSET 4.409401 0.000000 0.000000
												CHANNELS 3 Xrotation Yrotation Zrotation
												End Site
												{
													OFFSET 0.000000 4.409363 0.014373
												}
											}
										}
									}
								}
								JOINT LeftHandMiddle1
								{
									OFFSET 23.810104 0.000000 0.000000
									CHANNELS 3 Xrotation Yrotation Zrotation
									JOINT LeftHandMiddle2
									{
										OFFSET 7.176498 0.000000 0.000000
										CHANNELS 3 Xrotation Yrotation Zrotation
										JOINT LeftHandMiddle3
										{
											OFFSET 6.774902 0.000000 0.000000
											CHANNELS 3 Xrotation Yrotation Zrotation
											JOINT LeftHandMiddle4
											{
												OFFSET 5.403328 0.000000 0.000000
												CHANNELS 3 Xrotation Yrotation Zrotation
												End Site
												{
													OFFSET -0.027702 5.403244 0.017414
												}
											}
										}
									}
								}
								JOINT LeftHandRing1
								{
									OFFSET 22.908401 -0.839279 -6.020567
									CHANNELS 3 Xrotation Yrotation Zrotation
									JOINT LeftHandRing2
									{
										OFFSET 6.337502 0.000000 0.000000
										CHANNELS 3 Xrotation Yrotation Zrotation
										JOINT LeftHandRing3
										{
											OFFSET 5.779297 0.000000 0.000000
											CHANNELS 3 Xrotation Yrotation Zrotation
											JOINT LeftHandRing4
											{
												OFFSET 4.965698 0.000000 0.000000
												CHANNELS 3 Xrotation Yrotation Zrotation
												End Site
												{
													OFFSET 0.000000 4.965668 0.016186
												}
											}
										}
									}
								}
								JOINT LeftHandPinky1
								{
									OFFSET 20.037003 -1.530319 -10.950146
									CHANNELS 3 Xrotation Yrotation Zrotation
									JOINT LeftHandPinky2
									{
										OFFSET 5.254700 0.000000 0.000000
										CHANNELS 3 Xrotation Yrotation Zrotation
										JOINT LeftHandPinky3
										{
											OFFSET 4.810204 0.000000 0.000000
											CHANNELS 3 Xrotation Yrotation Zrotation
											JOINT LeftHandPinky4
											{
												OFFSET 3.647202 0.000000 0.000000
												CHANNELS 3 Xrotation Yrotation Zrotation
												End Site
												{
													OFFSET 0.000000 3.647186 0.011889
												}
											}
										}
									}
								}
							}
						}
					}
				}
				JOINT RightShoulder
				{
					OFFSET -15.141001 14.495407 -7.737500
					CHANNELS 3 Xrotation Yrotation Zrotation
					JOINT RightArm
					{
						OFFSET -9.308998 -2.777710 0.208500
						CHANNELS 3 Xrotation Yrotation Zrotation
						JOINT RightForeArm
						{
							OFFSET -29.972300 0.000000 0.000000
							CHANNELS 3 Xrotation Yrotation Zrotation
							JOINT RightHand
							{
								OFFSET -26.026505 0.000000 0.000000
								CHANNELS 3 Xrotation Yrotation Zrotation
								JOINT RightHandThumb1
								{
									OFFSET -12.240601 -7.148026 9.207092
									CHANNELS 3 Xrotation Yrotation Zrotation
									JOINT RightHandThumb2
									{
										OFFSET -4.138618 -2.389435 2.389433
										CHANNELS 3 Xrotation Yrotation Zrotation
										JOINT RightHandThumb3
										{
											OFFSET -2.726974 -1.574417 1.574421
											CHANNELS 3 Xrotation Yrotation Zrotation
											JOINT RightHandThumb4
											{
												OFFSET -3.941010 -2.275345 2.275343
												CHANNELS 3 Xrotation Yrotation Zrotation
												End Site
												{
													OFFSET 0.005814 5.087799 0.009927
												}
											}
										}
									}
								}
								JOINT RightHandIndex1
								{
									OFFSET -24.424698 -1.985657 5.953444
									CHANNELS 3 Xrotation Yrotation Zrotation
									JOINT RightHandIndex2
									{
										OFFSET -6.426697 0.000000 0.000000
										CHANNELS 3 Xrotation Yrotation Zrotation
										JOINT RightHandIndex3
										{
											OFFSET -5.337898 0.000000 0.000000
											CHANNELS 3 Xrotation Yrotation Zrotation
											JOINT RightHandIndex4
											{
												OFFSET -4.409401 0.000000 0.000000
												CHANNELS 3 Xrotation Yrotation Zrotation
												End Site
												{
													OFFSET 0.000000 4.409363 0.014408
												}
											}
										}
									}
								}
								JOINT RightHandMiddle1
								{
									OFFSET -23.810097 0.000000 0.000000
									CHANNELS 3 Xrotation Yrotation Zrotation
									JOINT RightHandMiddle2
									{
										OFFSET -7.176498 0.000000 0.000000
										CHANNELS 3 Xrotation Yrotation Zrotation
										JOINT RightHandMiddle3
										{
											OFFSET -6.774902 0.000000 0.000000
											CHANNELS 3 Xrotation Yrotation Zrotation
											JOINT RightHandMiddle4
											{
												OFFSET -5.403328 0.000000 0.000000
												CHANNELS 3 Xrotation Yrotation Zrotation
												End Site
												{
													OFFSET 0.027702 5.403244 0.017457
												}
											}
										}
									}
								}
								JOINT RightHandRing1
								{
									OFFSET -22.908302 -0.839325 -6.020576
									CHANNELS 3 Xrotation Yrotation Zrotation
									JOINT RightHandRing2
									{
										OFFSET -6.337502 0.000000 0.000000
										CHANNELS 3 Xrotation Yrotation Zrotation
										JOINT RightHandRing3
										{
											OFFSET -5.779297 0.000000 0.000000
											CHANNELS 3 Xrotation Yrotation Zrotation
											JOINT RightHandRing4
											{
												OFFSET -4.965698 0.000000 0.000000
												CHANNELS 3 Xrotation Yrotation Zrotation
												End Site
												{
													OFFSET 0.000000 4.965668 0.016226
												}
											}
										}
									}
								}
								JOINT RightHandPinky1
								{
									OFFSET -20.037003 -1.530334 -10.950259
									CHANNELS 3 Xrotation Yrotation Zrotation
									JOINT RightHandPinky2
									{
										OFFSET -5.254700 0.000000 0.000000
										CHANNELS 3 Xrotation Yrotation Zrotation
										JOINT RightHandPinky3
										{
											OFFSET -4.810204 0.000000 0.000000
											CHANNELS 3 Xrotation Yrotation Zrotation
											JOINT RightHandPinky4
											{
												OFFSET -3.647202 0.000000 0.000000
												CHANNELS 3 Xrotation Yrotation Zrotation
												End Site
												{
													OFFSET 0.000000 3.647186 0.011917
												}
											}
										}
									}
								}
							}
						}
					}
				}
			}
		}
	}
	JOINT LeftUpLeg
	{
		OFFSET 15.427100 -6.655098 0.678600
		CHANNELS 3 Xrotation Yrotation Zrotation
		JOINT LeftLeg
		{
			OFFSET 4.081073 -39.591068 13.024000
			CHANNELS 3 Xrotation Yrotation Zrotation
			JOINT LeftFoot
			{
				OFFSET -4.081074 -37.707932 -15.979700
				CHANNELS 3 Xrotation Yrotation Zrotation
				JOINT LeftToeBase
				{
					OFFSET 5.346399 -15.068900 20.645000
					CHANNELS 3 Xrotation Yrotation Zrotation
					JOINT LeftToe_End
					{
						OFFSET 2.754700 0.931300 11.300900
						CHANNELS 3 Xrotation Yrotation Zrotation
						End Site
						{
							OFFSET 0.000000 11.669021 0.000000
						}
					}
				}
			}
		}
	}
	JOINT RightUpLeg
	{
		OFFSET -15.569500 -6.655098 0.678600
		CHANNELS 3 Xrotation Yrotation Zrotation
		JOINT RightLeg
		{
			OFFSET -4.081825 -39.591045 13.023800
			CHANNELS 3 Xrotation Yrotation Zrotation
			JOINT RightFoot
			{
				OFFSET 4.081824 -37.707954 -15.979600
				CHANNELS 3 Xrotation Yrotation Zrotation
				JOINT RightToeBase
				{
					OFFSET -5.346400 -15.068900 20.645000
					CHANNELS 3 Xrotation Yrotation Zrotation
					JOINT RightToe_End
					{
						OFFSET -2.754700 0.931300 11.300900
						CHANNELS 3 Xrotation Yrotation Zrotation
						End Site
						{
							OFFSET 0.000000 11.669021 0.000000
						}
					}
				}
			}
		}
	}
}
MOTION
Frames: 5
Frame Time: 0.033333
1.063385 97.581314 -0.676726 -3.751555 -5.195129 -3.872385 3.290794 1.521089 2.842005 1.146035 0.329156 1.552971 1.123712 0.356192 1.550933 5.622648 -0.077170 0.463897 -7.551130 1.374726 -0.084352 -0.000000 0.000000 0.000000 1.046095 -17.446006 -12.316923 3.915803 -19.989408 -69.767596 -0.000013 -1.453237 0.000010 -33.228293 -1.359643 -6.191111 -0.666102 2.158575 4.837379 11.859637 25.414854 17.056693 -13.811975 3.541905 9.030660 0.000000 0.000001 0.000002 0.020433 -0.966549 -7.590930 0.267893 1.752969 -17.376527 0.057694 0.821036 -8.038817 -0.000001 -0.000000 0.000002 -0.077460 2.661817 -15.698700 0.268776 1.755780 -17.405209 0.300519 1.853956 -18.413080 -0.000000 -0.000001 0.000001 0.137966 3.644584 -21.134825 0.386571 2.094653 -20.910445 0.283122 1.800885 -17.867570 0.000000 0.000001 -0.000001 0.923045 5.558207 -27.126875 0.268795 1.755841 -17.405894 0.241898 1.667667 -16.505528 0.000000 0.000000 -0.000001 1.189529 15.344119 14.707062 13.162750 27.550902 58.780970 -0.000002 6.689793 0.000008 -20.174733 -0.523589 6.792870 -1.664528 -0.169102 -4.216947 12.708044 -29.838173 -16.127709 -15.551980 -3.555854 -12.703320 0.000000 0.000001 0.000002 0.037635 1.264480 6.828357 0.213869 -1.396491 17.412905 0.046090 -0.654319 8.059126 -0.000003 -0.000001 -0.000001 -0.135882 -2.206382 14.998774 0.214462 -1.398409 17.437703 0.239794 -1.476595 18.447081 -0.000003 0.000001 -0.000002 0.031301 -3.078199 20.463773 0.308446 -1.668282 20.948520 0.225821 -1.434045 17.897100 -0.000001 -0.000001 0.000001 0.748322 -4.885949 26.472205 0.214427 -1.398282 17.436025 0.192931 -1.327915 16.532292 0.000000 0.000002 0.000003 -10.250302 14.652620 11.507549 12.226052 1.644134 4.064412 0.757131 0.809234 -8.237263 -4.933142 0.000014 -0.000001 0.000000 -0.000001 -0.000000 3.588537 -10.069754 1.695833 6.765044 -8.484259 -2.423567 -5.422215 -3.054199 5.029882 -7.273476 -0.000002 0.000001 -0.000000 0.000000 0.000000 
1.081352 97.588173 -0.720017 -3.797296 -5.161811 -3.892657 3.302224 1.533267 2.832626 1.151471 0.337468 1.544755 1.129154 0.364537 1.542667 5.615565 -0.103272 0.499361 -7.756211 1.264984 -0.248531 -0.000000 0.000000 0.000000 1.048520 -17.449431 -12.305270 3.710945 -19.819775 -69.936281 0.000003 -1.386071 -0.000012 -33.039380 -1.397893 -6.171622 -0.666107 2.158569 4.837400 11.859646 25.414833 17.056678 -13.811959 3.541934 9.030643 -0.000002 -0.000002 0.000000 0.020434 -0.966545 -7.590928 0.267894 1.752968 -17.376531 0.057692 0.821033 -8.038850 0.000000 -0.000000 0.000001 -0.077461 2.661820 -15.698691 0.268775 1.755780 -17.405240 0.300518 1.853956 -18.413080 0.000000 0.000000 0.000001 0.137967 3.644589 -21.134822 0.386569 2.094652 -20.910477 0.283123 1.800886 -17.867580 0.000000 0.000001 0.000002 0.923051 5.558219 -27.126870 0.268795 1.755841 -17.405890 0.241897 1.667667 -16.505519 -0.000000 -0.000000 0.000002 1.196467 15.343499 14.675942 13.134858 27.545166 58.840598 -0.000001 6.666864 0.000019 -20.148483 -0.509868 6.830065 -1.660676 -0.173974 -4.224420 12.705565 -29.834225 -16.131281 -15.551412 -3.557426 -12.699347 0.000001 0.000000 0.000000 0.038939 1.259826 6.822413 0.213882 -1.396528 17.413468 0.046093 -0.654349 8.059481 -0.000000 -0.000002 -0.000003 -0.134328 -2.211673 14.992866 0.214482 -1.398435 17.438031 0.239799 -1.476606 18.447296 -0.000001 0.000002 -0.000000 0.033410 -3.083594 20.457725 0.308453 -1.668297 20.948708 0.225823 -1.434057 17.897317 -0.000001 0.000000 -0.000001 0.752421 -4.890635 26.466519 0.214428 -1.398294 17.436022 0.192930 -1.327906 16.532297 0.000001 -0.000000 0.000000 -10.241660 14.653350 11.512525 12.213993 1.612383 4.052831 0.795423 0.803185 -8.201340 -4.933144 0.000015 0.000001 -0.000000 -0.000000 0.000000 3.629995 -10.109411 1.713588 6.727478 -8.438886 -2.419919 -5.375299 -3.086136 5.014069 -7.273476 0.000005 -0.000000 -0.000001 0.000001 0.000000 
1.103438 97.590057 -0.765872 -3.848068 -5.128982 -3.922515 3.309754 1.542656 2.833814 1.154683 0.343193 1.537341 1.132486 0.370264 1.535202 5.621606 -0.131740 0.517720 -7.973929 1.132104 -0.437069 -0.000000 0.000000 0.000000 1.045471 -17.464201 -12.316755 3.508789 -19.621723 -70.087283 -0.000004 -1.316894 -0.000012 -32.842107 -1.431505 -6.155008 -0.666107 2.158566 4.837370 11.859653 25.414830 17.056654 -13.811970 3.541947 9.030690 0.000002 -0.000001 0.000001 0.020433 -0.966546 -7.590967 0.267894 1.752968 -17.376529 0.057693 0.821037 -8.038853 0.000002 0.000001 0.000004 -0.077461 2.661820 -15.698710 0.268774 1.755780 -17.405245 0.300519 1.853956 -18.413084 0.000000 -0.000001 0.000003 0.137971 3.644589 -21.134844 0.386571 2.094651 -20.910460 0.283124 1.800884 -17.867604 0.000000 0.000001 -0.000003 0.923051 5.558219 -27.126866 0.268795 1.755841 -17.405885 0.241897 1.667667 -16.505519 -0.000000 -0.000000 -0.000002 1.214716 15.353002 14.591769 13.083847 27.560710 58.949027 -0.000008 6.639390 0.000017 -20.131556 -0.523537 6.872836 -1.652181 -0.184742 -4.240987 12.699994 -29.825486 -16.139334 -15.550124 -3.560920 -12.690485 -0.000000 -0.000000 -0.000001 0.041817 1.249530 6.809242 0.213904 -1.396625 17.414672 0.046107 -0.654412 8.060242 0.000001 -0.000002 -0.000003 -0.130909 -2.223372 14.979764 0.214501 -1.398498 17.438779 0.239808 -1.476647 18.447796 -0.000002 0.000000 0.000003 0.038073 -3.095503 20.444402 0.308460 -1.668328 20.949104 0.225838 -1.434093 17.897775 0.000001 -0.000001 0.000001 0.761196 -4.901139 26.453931 0.214437 -1.398287 17.436023 0.192924 -1.327910 16.532283 -0.000001 -0.000002 0.000002 -10.244653 14.655836 11.528859 12.224923 1.576230 4.040372 0.823600 0.797555 -8.162055 -4.933142 0.000014 0.000004 -0.000001 0.000001 0.000000 3.671093 -10.137187 1.737929 6.698359 -8.392674 -2.415312 -5.329332 -3.129506 4.999637 -7.273477 0.000009 0.000000 -0.000000 -0.000002 -0.000000 
1.128134 97.585091 -0.812443 -3.911011 -5.098722 -3.953367 3.318857 1.551357 2.839049 1.159020 0.348225 1.530793 1.137050 0.375261 1.528604 5.646920 -0.151656 0.517618 -8.181443 1.020825 -0.620985 -0.000000 -0.000000 -0.000000 1.038542 -17.483980 -12.345061 3.389749 -19.486000 -70.144349 0.000006 -1.273236 -0.000006 -32.716565 -1.430732 -6.154039 -0.666090 2.158574 4.837385 11.859647 25.414881 17.056676 -13.811988 3.541856 9.030666 -0.000001 -0.000002 0.000001 0.020434 -0.966553 -7.590866 0.267895 1.752968 -17.376527 0.057694 0.821033 -8.038789 -0.000001 0.000000 0.000003 -0.077460 2.661815 -15.698681 0.268773 1.755775 -17.405224 0.300517 1.853957 -18.413084 -0.000000 0.000001 0.000001 0.137964 3.644570 -21.134835 0.386571 2.094653 -20.910441 0.283123 1.800881 -17.867580 0.000001 0.000002 0.000003 0.923034 5.558187 -27.126892 0.268795 1.755841 -17.405890 0.241899 1.667665 -16.505521 0.000000 -0.000001 0.000001 1.238684 15.373762 14.479784 13.023193 27.583733 59.078732 -0.000000 6.616086 0.000016 -20.130663 -0.546479 6.927851 -1.638795 -0.201863 -4.267279 12.691223 -29.811638 -16.152009 -15.548094 -3.566537 -12.676501 0.000000 0.000000 -0.000001 0.046375 1.233202 6.788379 0.213953 -1.396769 17.416648 0.046117 -0.654509 8.061455 0.000000 0.000000 -0.000005 -0.125483 -2.241932 14.959012 0.214525 -1.398587 17.440017 0.239828 -1.476703 18.448522 -0.000001 0.000002 0.000003 0.045445 -3.114427 20.423225 0.308478 -1.668380 20.949770 0.225863 -1.434152 17.898509 -0.000001 0.000000 -0.000001 0.775059 -4.917855 26.433957 0.214426 -1.398275 17.436040 0.192925 -1.327912 16.532280 -0.000000 -0.000000 -0.000000 -10.246037 14.660718 11.544010 12.257760 1.538767 4.033741 0.839746 0.794028 -8.124517 -4.933144 0.000009 -0.000001 0.000000 0.000000 0.000000 3.713821 -10.157289 1.751393 6.693224 -8.382611 -2.409953 -5.296510 -3.141911 4.998105 -7.273477 -0.000002 -0.000002 -0.000000 -0.000000 0.000000 
1.153250 97.575905 -0.857574 -3.988824 -5.071169 -3.974664 3.334642 1.562813 2.838319 1.167394 0.355510 1.524309 1.145691 0.382491 1.522067 5.689918 -0.155786 0.507508 -8.364524 0.966176 -0.768237 0.000000 0.000000 -0.000000 1.031654 -17.499192 -12.373902 3.411947 -19.497198 -70.059231 -0.000005 -1.275127 -0.000009 -32.732189 -1.382822 -6.172544 -0.666068 2.158585 4.837352 11.859625 25.414915 17.056700 -13.812005 3.541756 9.030649 -0.000001 0.000001 -0.000000 0.020429 -0.966562 -7.590780 0.267895 1.752968 -17.376525 0.057692 0.821023 -8.038728 -0.000001 0.000000 0.000004 -0.077462 2.661811 -15.698638 0.268770 1.755767 -17.405137 0.300517 1.853956 -18.413078 0.000001 -0.000001 -0.000004 0.137952 3.644545 -21.134810 0.386567 2.094648 -20.910419 0.283123 1.800878 -17.867549 -0.000000 0.000001 0.000001 0.923013 5.558143 -27.126885 0.268794 1.755841 -17.405890 0.241897 1.667665 -16.505524 0.000000 -0.000000 -0.000002 1.260688 15.396684 14.376537 12.968653 27.600180 59.195870 -0.000011 6.603441 0.000007 -20.146148 -0.560339 6.989491 -1.621045 -0.224579 -4.302185 12.679573 -29.793271 -16.168810 -15.545386 -3.574002 -12.657967 -0.000000 0.000000 -0.000002 0.052389 1.211556 6.760745 0.214017 -1.396985 17.419223 0.046141 -0.654643 8.063073 -0.000003 -0.000000 -0.000002 -0.118318 -2.266565 14.931413 0.214567 -1.398725 17.441662 0.239860 -1.476786 18.449540 0.000000 -0.000003 0.000004 0.055212 -3.139532 20.395095 0.308509 -1.668443 20.950692 0.225884 -1.434238 17.899491 -0.000001 -0.000001 -0.000002 0.793747 -4.939887 26.407482 0.214429 -1.398292 17.436044 0.192929 -1.327899 16.532302 -0.000000 -0.000002 0.000003 -10.229350 14.669942 11.543193 12.295950 1.501662 4.036464 0.850100 0.793040 -8.091520 -4.933144 0.000008 0.000002 0.000000 -0.000001 -0.000000 3.763224 -10.177158 1.736439 6.712799 -8.441491 -2.402574 -5.281772 -3.083425 5.019484 -7.273478 0.000007 -0.000000 0.000000 0.000000 -0.000000 
